<?xml version="1.0" standalone="no"?>
<!DOCTYPE svg PUBLIC "-//W3C//DTD SVG 20010904//EN"
 "http://www.w3.org/TR/2001/REC-SVG-20010904/DTD/svg10.dtd">
<svg version="1.0" xmlns="http://www.w3.org/2000/svg"
 width="1080.000000pt" height="1080.000000pt" viewBox="0 0 1080.000000 1080.000000"
 preserveAspectRatio="xMidYMid meet">

<g transform="translate(0.000000,1080.000000) scale(0.100000,-0.100000)"
fill="#000000" stroke="none">
<path d="M5360 9053 c-8 -3 -89 -49 -180 -103 -91 -53 -199 -116 -240 -140
-74 -43 -413 -241 -665 -390 -71 -42 -224 -132 -340 -200 -299 -175 -290 -169
-274 -185 8 -7 60 -41 116 -75 70 -43 108 -60 121 -56 14 5 62 -19 163 -80 79
-48 151 -93 159 -100 18 -17 22 -15 -187 -139 -89 -54 -170 -106 -179 -117
-12 -12 -19 -40 -22 -81 -3 -52 0 -66 17 -89 12 -14 97 -72 189 -127 92 -55
181 -110 197 -121 42 -28 49 -26 71 21 10 23 37 69 61 103 23 33 43 64 43 68
0 3 -47 35 -105 69 -58 35 -104 67 -102 72 1 4 60 42 131 85 71 42 138 88 148
102 22 30 34 143 24 214 -4 26 -18 58 -32 76 -14 16 -88 66 -165 112 -76 45
-139 85 -139 88 0 12 1217 720 1238 720 8 0 85 -41 171 -92 86 -50 192 -112
236 -138 141 -82 801 -472 1095 -647 157 -94 285 -175 285 -181 0 -16 -292
-192 -317 -192 -18 0 -310 170 -416 243 -24 16 -61 31 -81 34 -73 10 -118 -64
-102 -168 4 -26 14 -55 20 -63 7 -8 72 -49 144 -91 156 -90 171 -100 163 -114
-4 -5 -45 -33 -91 -61 -46 -28 -87 -55 -91 -61 -3 -5 8 -31 25 -57 16 -26 42
-73 56 -104 15 -32 31 -58 37 -58 6 0 47 22 92 49 44 27 178 105 296 173 118
69 262 152 319 186 57 34 108 59 113 56 4 -3 8 -83 8 -178 0 -151 -2 -176 -17
-194 -17 -19 -169 -110 -843 -504 -261 -153 -431 -253 -784 -462 -99 -58 -183
-106 -188 -106 -5 0 -7 84 -6 187 l3 187 265 158 c146 87 301 180 345 205 109
63 135 91 135 143 0 77 -53 140 -119 140 -39 0 -71 -17 -356 -190 -218 -132
-390 -230 -405 -230 -15 0 -116 58 -470 268 -177 106 -264 152 -285 152 -66 0
-125 -63 -125 -135 0 -56 43 -91 295 -241 127 -75 280 -167 340 -203 l110 -66
5 -325 c6 -353 6 -356 63 -390 69 -43 76 -40 500 214 216 128 457 272 537 318
80 47 235 138 345 203 110 64 270 158 355 208 386 225 487 287 515 317 29 30
30 34 36 163 11 210 10 522 -2 576 -7 32 -20 60 -37 76 -15 13 -142 93 -282
176 -579 345 -779 464 -1050 624 -157 92 -399 235 -538 318 -198 117 -262 150
-295 153 -23 2 -49 1 -57 -3z"/>
<path d="M5280 8345 c-107 -20 -226 -82 -311 -162 -82 -77 -128 -149 -165
-258 -24 -70 -27 -95 -27 -200 0 -189 46 -306 171 -438 71 -75 182 -148 270
-179 55 -19 88 -23 182 -23 140 0 226 24 334 95 308 201 398 603 199 894 -137
201 -414 316 -653 271z m221 -113 c31 -11 69 -27 84 -35 26 -13 23 -14 -71
-20 -220 -12 -401 -123 -490 -300 -62 -122 -81 -312 -45 -450 l17 -67 -24 22
c-36 34 -88 125 -111 195 -25 76 -28 198 -6 292 44 184 204 352 363 381 73 14
219 4 283 -18z"/>
<path d="M3300 7819 c-30 -16 -66 -41 -80 -55 l-25 -24 -3 -1265 -2 -1266 37
-39 c52 -54 1013 -631 1062 -637 20 -3 48 0 63 6 61 23 87 125 49 186 -13 22
-146 107 -490 313 l-471 284 0 1094 c0 869 3 1094 13 1094 6 0 32 -11 56 -25
23 -14 49 -25 57 -25 7 0 29 33 48 73 19 39 44 86 56 104 l21 31 -28 20 c-57
40 -277 162 -292 162 -9 0 -41 -14 -71 -31z"/>
<path d="M3806 6835 c-13 -14 -26 -42 -30 -63 -11 -66 -7 -1174 5 -1215 13
-47 35 -63 284 -211 233 -139 227 -136 264 -136 72 0 111 46 111 130 0 45 -4
56 -32 84 -18 18 -107 77 -198 130 -91 54 -168 103 -172 109 -10 16 -10 817 0
817 7 0 332 -196 570 -344 l72 -45 1 -848 c0 -466 4 -868 7 -892 l7 -44 339
-204 c286 -171 346 -203 378 -203 31 0 69 18 191 92 84 50 247 146 362 213
116 67 299 174 408 238 701 415 826 488 1027 604 80 46 161 99 180 119 l35 34
3 715 c1 393 0 715 -3 715 -8 0 -201 -112 -227 -132 l-23 -17 3 -568 c4 -540
3 -570 -15 -590 -10 -11 -133 -88 -273 -170 -471 -276 -894 -525 -1060 -623
-266 -157 -466 -270 -480 -270 -11 0 -12 89 -7 483 4 361 3 491 -6 517 -36
105 -207 105 -244 0 -10 -26 -12 -155 -11 -509 1 -285 -2 -476 -8 -478 -5 -2
-79 39 -164 90 l-155 93 -5 875 c-5 952 -2 892 -61 937 -13 10 -211 130 -439
267 -228 137 -442 266 -474 287 -73 47 -125 51 -160 13z"/>
<path d="M6911 6215 c-58 -34 -111 -71 -118 -81 -10 -13 -13 -72 -13 -244 l0
-227 -132 -78 c-416 -244 -506 -295 -516 -295 -9 0 -12 52 -12 193 0 184 -1
195 -21 213 -21 19 -22 19 -108 -27 -137 -74 -131 -56 -131 -405 l0 -294 28
-32 c41 -45 101 -44 174 2 29 18 186 112 348 208 547 324 584 347 604 375 20
27 21 43 24 393 2 292 0 364 -10 363 -7 0 -60 -29 -117 -64z"/>
<path d="M4635 3423 c-11 -3 -28 -12 -37 -21 -17 -14 -18 -66 -18 -818 l0
-803 26 -20 c22 -18 41 -21 111 -21 76 0 86 2 108 25 l25 24 0 576 c0 316 3
575 7 575 4 0 278 -270 608 -600 l600 -600 56 0 c42 0 63 5 83 21 l26 20 0
808 c0 770 -1 809 -18 824 -15 13 -39 17 -114 17 -147 0 -132 66 -138 -627
l-5 -585 -599 593 c-329 327 -610 599 -625 606 -27 12 -61 14 -96 6z"/>
<path d="M2642 3410 c-33 -14 -44 -55 -40 -148 2 -69 6 -86 22 -98 17 -12 123
-14 658 -14 l638 0 40 -36 40 -36 0 -153 0 -154 -47 -38 -46 -38 -364 0 -365
0 -19 -24 c-25 -31 -28 -184 -3 -219 l15 -22 422 0 422 0 123 118 122 117 0
252 c0 170 -4 260 -12 278 -10 21 -133 135 -217 200 -25 19 -43 20 -696 22
-399 1 -679 -2 -693 -7z"/>
<path d="M6845 3413 c-11 -2 -30 -6 -42 -9 -32 -6 -242 -192 -248 -218 -7 -33
-7 -48 -6 -295 l1 -234 101 -96 c56 -53 113 -104 128 -113 24 -16 68 -18 548
-18 l522 0 42 -40 41 -39 -7 -143 c-6 -142 -7 -143 -36 -170 l-29 -28 -643 0
c-487 0 -646 -3 -655 -12 -8 -8 -12 -49 -12 -119 0 -87 3 -109 17 -120 13 -11
123 -15 597 -17 320 -2 631 -1 692 3 l112 7 103 95 c57 52 109 104 116 116 9
16 12 93 13 262 l0 240 -89 86 c-50 47 -108 98 -131 114 l-41 28 -502 3 c-276
2 -511 3 -522 3 -11 1 -39 18 -63 40 l-42 39 0 150 0 150 40 36 40 36 634 0
c564 0 636 2 650 16 13 12 16 38 16 119 0 96 -2 105 -22 119 -20 14 -98 16
-663 15 -352 -1 -649 -3 -660 -6z"/>
<path d="M2640 2677 l-25 -13 -3 -446 -2 -447 25 -17 c19 -13 44 -15 119 -12
57 2 100 8 107 15 22 22 28 113 28 490 1 365 -3 417 -32 435 -20 13 -190 9
-217 -5z"/>
</g>
</svg>
