<?xml version="1.0" standalone="no"?>
<!DOCTYPE svg PUBLIC "-//W3C//DTD SVG 20010904//EN"
 "http://www.w3.org/TR/2001/REC-SVG-20010904/DTD/svg10.dtd">
<svg version="1.0" xmlns="http://www.w3.org/2000/svg"
 width="1080.000000pt" height="1080.000000pt" viewBox="0 0 1080.000000 1080.000000"
 preserveAspectRatio="xMidYMid meet">

<g transform="translate(0.000000,1080.000000) scale(0.100000,-0.100000)"
fill="#000000" stroke="none">
<path d="M3471 8981 c-6 -11 -11 -35 -11 -54 0 -19 -7 -48 -15 -63 -8 -16 -15
-37 -15 -46 0 -9 -4 -20 -10 -23 -5 -3 -10 -15 -10 -26 0 -11 -7 -22 -15 -25
-8 -4 -15 -13 -15 -20 0 -14 -7 -24 -37 -59 -7 -7 -13 -17 -13 -22 0 -12 -97
-104 -140 -134 -40 -28 -140 -79 -155 -79 -5 0 -21 -9 -35 -20 l-25 -20 32 0
c17 0 35 -4 38 -10 3 -5 18 -10 32 -10 34 0 147 -51 212 -95 36 -25 171 -166
171 -179 0 -8 4 -16 9 -18 14 -5 67 -110 81 -160 17 -56 30 -53 30 7 0 24 5
47 10 50 6 3 10 21 10 39 0 19 7 39 15 46 8 7 15 18 15 25 0 17 33 75 43 75 4
0 7 9 7 20 0 13 36 57 93 113 73 73 109 101 177 135 47 23 93 42 103 42 9 0
17 4 17 9 0 13 -57 31 -96 31 -19 0 -34 4 -34 9 0 5 -16 12 -35 15 -19 4 -35
11 -35 16 0 6 -8 10 -19 10 -10 0 -24 7 -31 15 -7 8 -19 15 -26 15 -8 0 -14 5
-14 10 0 6 -6 10 -14 10 -21 0 -155 136 -193 196 -33 53 -73 140 -73 160 0 31
-17 39 -29 15z"/>
<path d="M7206 8439 c-27 -41 -120 -139 -131 -139 -3 0 -23 -11 -45 -25 -22
-14 -49 -25 -62 -25 -12 0 -38 -5 -57 -11 -20 -7 -43 -14 -51 -16 -11 -4 -10
-7 6 -13 21 -8 138 -120 159 -151 26 -39 45 -83 45 -104 0 -13 5 -27 10 -30 6
-3 10 -28 10 -56 0 -27 5 -49 10 -49 6 0 10 7 10 16 0 33 100 151 143 167 9 3
17 11 17 17 0 5 9 10 19 10 11 0 22 4 25 9 8 12 102 40 146 43 l35 3 -44 29
c-57 36 -135 118 -155 161 -9 19 -21 37 -26 40 -6 3 -10 22 -10 41 0 19 -4 34
-9 34 -6 0 -11 21 -13 47 l-3 47 -29 -45z"/>
<path d="M4545 8081 c-3 -6 -23 -11 -43 -11 -20 -1 -48 -7 -62 -15 -14 -8 -35
-14 -47 -15 -13 0 -23 -4 -23 -9 0 -5 -10 -13 -22 -16 -13 -4 -37 -18 -55 -31
-17 -13 -34 -24 -37 -24 -17 0 -146 -129 -146 -146 0 -3 -11 -20 -24 -37 -13
-18 -27 -42 -31 -54 -3 -13 -11 -23 -16 -23 -5 0 -9 -13 -9 -28 0 -15 -4 -32
-10 -38 -13 -13 -32 -127 -32 -194 0 -68 21 -190 33 -190 5 0 9 -8 9 -17 0
-24 50 -123 85 -170 16 -21 51 -58 77 -83 67 -63 76 -70 88 -70 5 0 10 -4 10
-9 0 -5 11 -12 25 -15 14 -4 25 -11 25 -16 0 -6 11 -10 24 -10 13 0 26 -3 28
-7 2 -5 19 -15 38 -24 117 -55 147 -68 168 -74 12 -4 22 -11 22 -16 0 -5 9 -9
19 -9 21 0 84 -30 89 -42 2 -5 13 -8 24 -8 10 0 26 -7 34 -15 9 -8 24 -15 35
-15 10 0 19 -4 19 -10 0 -5 9 -10 19 -10 11 0 33 -11 48 -25 24 -21 26 -26 13
-35 -10 -6 -328 -10 -907 -10 -516 0 -893 -4 -893 -9 0 -5 -10 -11 -23 -15
-27 -6 -107 -77 -107 -94 0 -7 -4 -12 -10 -12 -5 0 -10 -8 -10 -18 0 -10 -7
-27 -15 -38 -22 -29 -22 -799 0 -828 8 -11 15 -28 15 -38 0 -10 5 -18 10 -18
6 0 10 -5 10 -12 0 -17 92 -98 112 -98 9 0 18 -5 20 -11 2 -6 47 -10 123 -10
90 1 124 -3 142 -14 l23 -15 0 -1315 c0 -870 3 -1315 10 -1315 6 0 10 -7 10
-15 0 -34 83 -138 123 -156 12 -5 29 -13 37 -18 8 -5 39 -16 68 -26 50 -16
152 -17 1740 -10 999 4 1691 10 1696 16 6 5 23 9 38 9 15 0 28 4 28 9 0 5 10
13 23 17 35 11 97 80 128 142 l29 57 0 1300 c0 800 4 1306 10 1315 7 11 35 16
120 18 60 2 110 8 110 13 0 5 8 9 19 9 20 0 131 98 131 116 0 6 7 25 16 42 13
27 15 86 12 434 -4 453 0 431 -83 513 -80 81 -2 75 -989 75 -549 0 -887 4
-896 10 -13 8 -10 14 14 35 16 14 39 25 52 25 13 0 26 5 29 10 3 6 17 10 29
10 13 0 29 7 36 15 7 8 25 15 41 15 16 0 29 4 29 10 0 5 16 12 35 16 19 3 35
10 35 15 0 5 11 9 24 9 13 0 39 8 58 17 61 31 68 33 87 33 10 0 24 7 31 15 7
8 21 15 32 15 25 0 150 82 199 130 44 44 119 145 119 162 0 7 7 22 15 32 8 11
15 28 15 38 0 10 5 18 10 18 6 0 10 15 10 34 0 18 7 50 15 69 9 22 15 67 15
112 0 45 -6 90 -15 112 -8 19 -15 51 -15 69 0 19 -4 34 -9 34 -5 0 -12 13 -16
30 -4 16 -11 32 -16 35 -5 4 -9 15 -9 26 0 10 -4 19 -9 19 -5 0 -13 9 -16 21
-21 65 -217 239 -270 239 -8 0 -15 4 -15 10 0 5 -16 12 -35 16 -19 3 -35 10
-35 14 0 10 -100 22 -185 22 -92 0 -195 -12 -195 -23 0 -5 -5 -9 -11 -9 -6 0
-25 -6 -42 -14 -18 -8 -39 -17 -47 -20 -62 -26 -165 -112 -220 -185 -14 -18
-31 -39 -37 -46 -7 -8 -13 -21 -13 -29 0 -9 -4 -16 -9 -16 -5 0 -12 -13 -16
-30 -4 -16 -11 -30 -16 -30 -5 0 -9 -15 -9 -32 0 -18 -7 -42 -15 -52 -10 -13
-15 -43 -15 -82 0 -35 -4 -66 -10 -69 -5 -3 -10 -40 -10 -81 0 -44 -6 -89 -15
-111 -8 -19 -15 -65 -15 -102 0 -74 -37 -205 -50 -180 -8 14 -28 294 -36 504
-3 67 -11 122 -19 142 -8 17 -15 40 -15 51 0 12 -4 24 -10 27 -5 3 -10 15 -10
25 0 10 -7 25 -15 34 -8 8 -15 22 -15 30 0 9 -4 16 -10 16 -5 0 -10 7 -10 15
0 9 -7 18 -15 21 -8 4 -15 10 -15 16 0 22 -160 168 -185 168 -3 0 -23 11 -45
25 -22 14 -48 25 -58 25 -9 0 -26 6 -37 14 -35 24 -277 46 -290 27z m215 -201
c104 -29 189 -87 255 -171 30 -38 55 -88 55 -109 0 -10 5 -20 11 -22 13 -4 29
-180 39 -428 4 -96 13 -220 20 -276 18 -139 6 -174 -48 -145 -9 5 -24 12 -32
15 -8 3 -22 10 -30 15 -8 5 -42 21 -75 36 -33 15 -82 38 -108 51 -27 13 -55
24 -62 24 -7 0 -18 7 -25 15 -7 8 -23 15 -35 15 -13 0 -25 3 -27 8 -3 7 -22
17 -133 67 -109 49 -185 89 -185 97 0 4 -6 8 -14 8 -21 0 -108 99 -139 159
-15 29 -27 68 -27 86 0 19 -4 37 -10 40 -5 3 -10 39 -10 80 0 41 5 77 10 80 6
3 10 24 10 45 0 21 3 40 8 42 4 2 18 25 31 51 41 85 187 206 249 207 10 1 28
7 42 15 30 18 160 15 230 -5z m1395 -20 c3 -5 20 -10 36 -10 43 0 135 -54 195
-114 54 -54 114 -151 114 -185 0 -11 5 -23 10 -26 6 -4 10 -55 10 -120 0 -65
-4 -116 -10 -120 -5 -3 -10 -19 -10 -35 0 -16 -4 -31 -9 -35 -6 -3 -20 -26
-33 -52 -24 -49 -103 -133 -124 -133 -7 0 -14 -4 -16 -8 -5 -12 -132 -72 -152
-72 -10 0 -24 -7 -32 -15 -9 -8 -24 -15 -34 -15 -10 0 -22 -4 -25 -10 -3 -5
-19 -10 -34 -10 -16 0 -34 -7 -41 -15 -7 -8 -23 -15 -36 -15 -12 0 -26 -4 -29
-10 -3 -5 -17 -10 -29 -10 -13 0 -29 -7 -36 -15 -7 -8 -25 -15 -41 -15 -16 0
-29 -4 -29 -10 0 -5 -16 -12 -35 -16 -19 -3 -38 -10 -41 -15 -3 -5 -15 -9 -27
-9 -12 0 -31 -7 -41 -15 -11 -8 -30 -15 -43 -15 -13 0 -23 -4 -23 -10 0 -5
-14 -10 -30 -10 -40 0 -47 20 -31 84 7 28 17 89 21 136 20 191 31 276 40 292
6 10 10 47 10 82 0 36 7 91 15 123 8 31 15 72 15 90 0 18 5 33 10 33 6 0 10
11 10 24 0 13 7 29 15 36 8 7 15 18 15 25 0 32 157 175 193 175 8 0 20 7 27
15 7 8 27 15 46 15 18 0 36 5 39 10 3 6 42 10 85 10 43 0 82 -4 85 -10z
m-1427 -1902 l2 -408 -778 0 -778 0 -19 23 c-19 21 -20 40 -23 385 l-3 363 23
25 23 24 775 -3 775 -2 3 -407z m1040 0 l2 -408 -420 0 c-393 0 -420 1 -420
18 0 36 -1 719 0 760 l0 42 418 -2 417 -3 3 -407z m1778 398 c18 -14 19 -30
19 -393 0 -342 -2 -381 -17 -396 -15 -16 -77 -17 -800 -15 l-783 3 -3 385 c-1
212 0 395 3 408 l5 22 778 0 c656 0 781 -2 798 -14z m-2830 -1003 c12 -4 14
-196 14 -1344 l0 -1339 -528 0 -528 0 -37 33 -37 33 0 1306 c0 1036 3 1307 13
1312 16 6 1085 6 1103 -1z m1039 1 c13 -5 15 -170 15 -1345 l0 -1339 -420 0
c-329 0 -420 3 -420 13 -4 278 1 2661 5 2668 7 10 794 13 820 3z m1379 0 c14
-6 16 -130 16 -1312 l0 -1306 -37 -33 c-29 -26 -45 -33 -77 -33 -23 0 -269 0
-547 -1 -279 -1 -512 2 -518 5 -8 5 -11 372 -11 1331 0 1190 2 1325 16 1339
14 14 80 16 579 16 310 0 570 -3 579 -6z"/>
<path d="M2555 7313 c15 -54 5 -229 -14 -243 -4 -3 -17 -22 -30 -42 -24 -41
-14 -51 23 -23 14 10 45 15 96 15 51 0 82 -5 96 -15 10 -8 27 -15 37 -15 10 0
34 -12 54 -27 l36 -28 -7 35 c-14 66 -18 172 -7 183 6 6 11 21 11 34 0 13 11
41 25 63 14 22 25 41 25 43 0 2 -28 0 -62 -4 -63 -8 -188 -2 -198 10 -8 10
-71 41 -82 41 -6 0 -7 -10 -3 -27z"/>
</g>
</svg>
