<?xml version="1.0" standalone="no"?>
<!DOCTYPE svg PUBLIC "-//W3C//DTD SVG 20010904//EN"
 "http://www.w3.org/TR/2001/REC-SVG-20010904/DTD/svg10.dtd">
<svg version="1.0" xmlns="http://www.w3.org/2000/svg"
 width="272.000000pt" height="145.000000pt" viewBox="0 0 272.000000 145.000000"
 preserveAspectRatio="xMidYMid meet">

<g transform="translate(0.000000,145.000000) scale(0.100000,-0.100000)"
fill="#000000" stroke="none">
<path d="M1215 1331 c-49 -23 -79 -54 -101 -106 -9 -22 -23 -47 -31 -56 -9
-12 -13 -34 -11 -70 3 -46 6 -54 24 -57 20 -3 22 2 26 81 7 134 61 197 168
197 128 0 189 -107 166 -293 -12 -97 -80 -172 -153 -169 -27 1 -33 -2 -33 -20
0 -18 4 -20 32 -14 85 17 148 77 170 161 7 28 18 54 25 58 16 10 18 113 2 122
-5 4 -20 30 -33 58 -49 110 -152 154 -251 108z"/>
<path d="M1220 1282 c-98 -51 -110 -258 -21 -352 40 -42 76 -56 118 -45 42 10
98 76 112 128 40 159 -22 287 -139 287 -19 0 -51 -8 -70 -18z"/>
<path d="M1035 777 c-62 -35 -94 -91 -121 -209 -13 -56 -24 -113 -24 -124 0
-12 23 -52 51 -90 l50 -69 -7 122 c-5 93 -4 126 6 138 10 12 36 15 121 15 60
0 109 2 109 5 0 3 -21 57 -46 120 -43 106 -48 115 -73 115 -14 0 -44 -10 -66
-23z"/>
<path d="M1255 770 l-29 -30 23 -24 c22 -23 22 -25 7 -77 -23 -78 -23 -79 34
-79 57 0 57 1 34 79 -15 52 -15 54 7 77 l23 24 -29 30 c-16 17 -32 30 -35 30
-3 0 -19 -13 -35 -30z"/>
<path d="M1406 685 c-25 -63 -46 -117 -46 -120 0 -3 49 -5 109 -5 85 0 111 -3
121 -15 10 -12 11 -45 6 -138 l-7 -122 50 69 c28 38 51 78 51 90 -1 59 -49
230 -77 269 -32 47 -94 87 -134 87 -25 0 -30 -9 -73 -115z"/>
<path d="M1010 483 c0 -27 3 -99 7 -160 l6 -113 267 0 267 0 6 113 c4 61 7
133 7 160 l0 47 -280 0 -280 0 0 -47z m300 -109 c11 -12 10 -18 -3 -32 -16
-15 -18 -15 -34 0 -13 14 -14 20 -3 32 7 9 16 16 20 16 4 0 13 -7 20 -16z"/>
<path d="M1020 160 c0 -20 7 -20 270 -20 263 0 270 0 270 20 0 20 -7 20 -270
20 -263 0 -270 0 -270 -20z"/>
</g>
</svg>
